<svg xmlns="http://www.w3.org/2000/svg" xmlns:xlink="http://www.w3.org/1999/xlink" id="Layer_1" height="512" fill='#C4AA82ff' viewBox="0 0 512 512" width="512"><linearGradient id="lg1"><stop offset="0" stop-color="#65c8ca"></stop><stop offset=".385" stop-color="#8eb6dd"></stop><stop offset=".64" stop-color="#c095c4"></stop></linearGradient><linearGradient id="SVGID_1_" gradientUnits="userSpaceOnUse" x1="144.533" x2="363.479" xlink:href="#lg1" y1="400.922" y2="21.696"></linearGradient><linearGradient id="SVGID_2_" gradientUnits="userSpaceOnUse" x1="50.031" x2="461.969" xlink:href="#lg1" y1="256" y2="256"></linearGradient><g><path d="m448.464 292.639c21.351-60.395 13.457-121.139 3.075-161.462-11.214-43.559-27.238-72.562-27.915-73.775-1.397-2.506-4.371-3.672-7.101-2.782-75.778 24.716-130.605 61.192-163.728 108.744-30.749-36.842-69.302-61.766-96.924-76.431-31.601-16.779-55.509-23.963-56.511-24.261-2.777-.821-5.745.453-7.057 3.034-46.884 92.271-54.812 173.596-23.565 241.717 27.188 59.273 79.538 96.934 118.667 118.09 39.433 21.319 72.87 30.409 78.293 31.806.385.139.79.238 1.209.296.08.011.161.016.242.024.096.009.19.024.287.029.092.005.184.007.275.007.009 0 .018.002.027.002.193 0 .387-.01.581-.029.081-.008.161-.023.241-.034.106-.015.212-.026.318-.047.157-.03.31-.07.463-.112.029-.008.058-.013.087-.022.205-.06.405-.131.6-.212 91.909-36.986 151.59-91.49 177.481-162.005.082-.188.153-.382.216-.582.242-.667.503-1.325.739-1.995zm-10.527-6.324c-8.867-.902-28.752-2.304-52.502-.048-33.122 3.144-61.239 12.388-82.628 26.972 12.552-37.631 27.554-73.491 41.813-104.295 19.845-16.915 77.323-21.176 104.375-21.525 2.494 30.262.601 64.645-11.058 98.896zm-93.328-105.301c-1.441-20.325-6.558-48.461-22.639-68.31 23.255-15.932 50.736-29.678 82.375-41.181-12.314 20.229-35.638 60.092-59.736 109.491zm103.165-5.559c-17.516.315-64.311 2.335-94.284 14.741 26.898-55.618 53.142-99.578 64.311-117.662 5.562 11.763 15.015 33.923 22.212 62.001 3.067 11.969 5.905 25.811 7.761 40.92zm-135.572-55.746c24.772 29.836 20.632 85.401 20.585 85.98-.007.09.002.178-.001.267-12.687 27.546-25.893 58.975-37.46 92.094-3.089-32.312-12.338-81.674-39.61-117.127 13.824-22.896 32.679-43.327 56.486-61.214zm-48.799 310.985c-6.542-13.421-15.331-33.605-22.554-57.833-12.186-40.874-22.192-101.778-.657-159.809 2.623-7.068 5.674-13.931 9.101-20.611 35.719 50.846 35.608 130.863 35.527 137.759-10.081 33.267-17.889 67.455-21.417 100.494zm-17.475-256.798c-.924 1.516-1.837 3.038-2.72 4.575-.035.062-.072.123-.105.187-5.536 9.664-10.271 19.732-14.163 30.219-22.688 61.138-12.3 124.784.409 167.412 3.169 10.628 6.607 20.455 10.032 29.319-42.344-61.523-73.957-137.4-94.381-195.456-21.089-59.942-34.069-111.294-39.094-132.538 25.315 9.372 93.398 38.619 140.022 96.282zm-166.283 128.524c-27.948-60.931-22.542-133.585 15.999-216.15 5.883 24.191 18.505 72.33 37.983 127.712 23.833 67.769 62.764 159.548 116.327 225.919-14.116-4.864-34.598-12.919-56.841-24.945-37.52-20.285-87.661-56.276-113.468-112.536zm194.71 140.005c2.76-35.335 10.944-72.415 21.854-108.466 41.516-40.143 113.887-37.903 137.36-35.968-25.104 61.646-78.591 110.172-159.214 144.434z"></path><g><path d="m448.464 292.639c21.351-60.395 13.457-121.139 3.075-161.462-11.214-43.559-27.238-72.562-27.915-73.775-1.397-2.506-4.371-3.672-7.101-2.782-75.778 24.716-130.605 61.192-163.728 108.744-30.749-36.842-69.302-61.766-96.924-76.431-31.601-16.779-55.509-23.963-56.511-24.261-2.777-.821-5.745.453-7.057 3.034-46.884 92.271-54.812 173.596-23.565 241.717 27.188 59.273 79.538 96.934 118.667 118.09 39.433 21.319 72.87 30.409 78.293 31.806.385.139.79.238 1.209.296.08.011.161.016.242.024.096.009.19.024.287.029.092.005.184.007.275.007.009 0 .018.002.027.002.193 0 .387-.01.581-.029.081-.008.161-.023.241-.034.106-.015.212-.026.318-.047.157-.03.31-.07.463-.112.029-.008.058-.013.087-.022.205-.06.405-.131.6-.212 91.909-36.986 151.59-91.49 177.481-162.005.082-.188.153-.382.216-.582.242-.667.503-1.325.739-1.995zm-10.527-6.324c-8.867-.902-28.752-2.304-52.502-.048-33.122 3.144-61.239 12.388-82.628 26.972 12.552-37.631 27.554-73.491 41.813-104.295 19.845-16.915 77.323-21.176 104.375-21.525 2.494 30.262.601 64.645-11.058 98.896zm-93.328-105.301c-1.441-20.325-6.558-48.461-22.639-68.31 23.255-15.932 50.736-29.678 82.375-41.181-12.314 20.229-35.638 60.092-59.736 109.491zm103.165-5.559c-17.516.315-64.311 2.335-94.284 14.741 26.898-55.618 53.142-99.578 64.311-117.662 5.562 11.763 15.015 33.923 22.212 62.001 3.067 11.969 5.905 25.811 7.761 40.92zm-135.572-55.746c24.772 29.836 20.632 85.401 20.585 85.98-.007.09.002.178-.001.267-12.687 27.546-25.893 58.975-37.46 92.094-3.089-32.312-12.338-81.674-39.61-117.127 13.824-22.896 32.679-43.327 56.486-61.214zm-48.799 310.985c-6.542-13.421-15.331-33.605-22.554-57.833-12.186-40.874-22.192-101.778-.657-159.809 2.623-7.068 5.674-13.931 9.101-20.611 35.719 50.846 35.608 130.863 35.527 137.759-10.081 33.267-17.889 67.455-21.417 100.494zm-17.475-256.798c-.924 1.516-1.837 3.038-2.72 4.575-.035.062-.072.123-.105.187-5.536 9.664-10.271 19.732-14.163 30.219-22.688 61.138-12.3 124.784.409 167.412 3.169 10.628 6.607 20.455 10.032 29.319-42.344-61.523-73.957-137.4-94.381-195.456-21.089-59.942-34.069-111.294-39.094-132.538 25.315 9.372 93.398 38.619 140.022 96.282zm-166.283 128.524c-27.948-60.931-22.542-133.585 15.999-216.15 5.883 24.191 18.505 72.33 37.983 127.712 23.833 67.769 62.764 159.548 116.327 225.919-14.116-4.864-34.598-12.919-56.841-24.945-37.52-20.285-87.661-56.276-113.468-112.536zm194.71 140.005c2.76-35.335 10.944-72.415 21.854-108.466 41.516-40.143 113.887-37.903 137.36-35.968-25.104 61.646-78.591 110.172-159.214 144.434z"></path></g></g></svg>